<svg width="86" height="99" viewBox="0 0 86 99" fill="none" xmlns="http://www.w3.org/2000/svg">
<path d="M43.4733 88.0655C44.131 77.1067 52.6327 55.1804 81.377 55.146C80.5733 68.5403 71.8673 93.8761 43.4733 88.0655Z" fill="#2A2B6B" stroke="#2A2B6B" stroke-width="3.84" stroke-linecap="round" stroke-linejoin="round"/>
<path d="M42.9447 88.0655C42.2869 77.1067 33.7853 55.1804 5.04097 55.146C5.84471 68.5403 14.5507 93.8761 42.9447 88.0655Z" stroke="#2A2B6B" stroke-width="3.84" stroke-linecap="round" stroke-linejoin="round"/>
<rect x="41.377" y="47.5" width="4" height="42" fill="#2A2B6B"/>
<path d="M28.877 40.5C28.877 31.8272 36.1348 22.1825 43.9966 16.9998M43.9966 16.9998C50.6386 12.6213 58.0685 9.99984 62.877 9.99984V28.2498C62.877 38.8813 54.2584 47.4998 43.627 47.4998V47.4998C32.9955 47.4998 24.377 38.8813 24.377 28.2498V9.99984C28.4567 9.66651 38.0924 10.5998 43.9966 16.9998Z" stroke="#2A2B6B" stroke-width="3.84" stroke-linecap="round" stroke-linejoin="round"/>
<path d="M33.377 11C33.377 8 41.177 2.5 44.377 2.5C47.377 2.5 54.377 8.3 54.377 11.5" stroke="#2A2B6B" stroke-width="3.84" stroke-linecap="round" stroke-linejoin="round"/>
</svg>
