<svg width="96" height="87" viewBox="0 0 96 87" fill="none" xmlns="http://www.w3.org/2000/svg">
<circle cx="19.9238" cy="19.5" r="19" fill="#ED1B2F"/>
<path d="M77.9238 5.5H40.6441C40.1785 5.5 39.7276 5.6624 39.3689 5.95921L26.1487 16.9001C25.6896 17.2801 25.4238 17.845 25.4238 18.4409V79C25.4238 80.1046 26.3193 81 27.4238 81H77.9238C79.0284 81 79.9238 80.1046 79.9238 79V7.5C79.9238 6.39543 79.0284 5.5 77.9238 5.5Z" stroke="#2A2B6B" stroke-width="3"/>
<path d="M36.9238 81.1562L27.9238 81.1562C26.4568 81.1562 25.2676 79.967 25.2676 78.5L25.2676 69.5C25.2676 67.9182 26.4911 67.0157 27.5742 67.2754C28.3713 67.4665 29.1542 67.72 29.915 68.0352C31.8145 68.822 33.5403 69.9759 34.9941 71.4297C36.448 72.8835 37.6019 74.6093 38.3887 76.5088C38.7038 77.2696 38.9573 78.0525 39.1484 78.8496C39.4081 79.9327 38.5056 81.1562 36.9238 81.1562Z" fill="#2A2B6B" stroke="#2A2B6B" stroke-width="2.68752"/>
<path d="M79.5801 69.5L79.5801 78.5C79.5801 79.967 78.3908 81.1562 76.9238 81.1562L67.9238 81.1562C66.3421 81.1562 65.4396 79.9327 65.6992 78.8496C65.8903 78.0525 66.1438 77.2696 66.459 76.5088C67.2458 74.6093 68.3997 72.8835 69.8535 71.4297C71.3073 69.9759 73.0331 68.822 74.9326 68.0352C75.6935 67.72 76.4763 67.4665 77.2734 67.2754C78.3565 67.0157 79.5801 67.9182 79.5801 69.5Z" fill="#2A2B6B" stroke="#2A2B6B" stroke-width="2.68752"/>
<path d="M34.4238 43L46.2528 29.3512C46.9197 28.5817 48.0582 28.4361 48.8972 29.013L54.0529 32.5575C54.8474 33.1037 55.9185 33.0054 56.6002 32.3236L67.4238 21.5" stroke="#2A2B6B" stroke-width="3" stroke-linecap="round"/>
<path d="M60.9238 19.5L66.97 19.9031C67.8364 19.9608 68.5666 20.5711 68.7772 21.4136L69.9238 26" stroke="#011942" stroke-width="3" stroke-linecap="round"/>
<rect x="33.9238" y="50.5" width="37" height="3" rx="1.5" fill="#2A2B6B"/>
<rect x="33.9238" y="56.5" width="37" height="3" rx="1.5" fill="#2A2B6B"/>
<rect x="33.9238" y="62.5" width="25" height="3" rx="1.5" fill="#2A2B6B"/>
</svg>
