<svg width="102" height="101" viewBox="0 0 102 101" fill="none" xmlns="http://www.w3.org/2000/svg">
<circle cx="19.9238" cy="19.5" r="19" fill="#ED1B2F"/>
<path d="M25.7996 60.7363L9.92383 73.838L28.9238 98.2188L30.4375 96.8419C35.2015 92.5085 41.4102 90.1071 47.8502 90.1071H60.8384C68.4655 90.1071 75.788 87.1141 81.2313 81.7716L97.0685 66.2276C99.9972 63.3531 99.9972 58.6348 97.0685 55.7603C94.2162 52.9608 89.6474 52.9608 86.7951 55.7603L76.5338 65.8316C72.4238 69.8655 66.8948 72.1255 61.1359 72.1255H49.3121C48.7589 72.1255 48.3105 71.6771 48.3105 71.1239C48.3105 70.5708 48.7589 70.1224 49.3121 70.1224H64.5716C68.1184 70.1224 70.9936 67.2472 70.9936 63.7004C70.9936 60.1536 68.1184 57.2784 64.5716 57.2784H35.4222C31.9104 57.2784 28.5082 58.501 25.7996 60.7363Z" stroke="#2A2B6B" stroke-width="3.84" stroke-linecap="round" stroke-linejoin="round"/>
<path d="M53.0286 48.9283C53.695 37.8273 62.3069 15.6167 91.424 15.5818C90.6098 29.1498 81.7909 54.8143 53.0286 48.9283Z" fill="#2A2B6B" stroke="#2A2B6B" stroke-width="3.88214"/>
<path d="M50.583 48.8624C50.1343 41.3868 44.3348 26.4297 24.7268 26.4063C25.2751 35.5432 31.2139 52.8261 50.583 48.8624Z" fill="#2A2B6B" stroke="#2A2B6B" stroke-width="3.88214"/>
</svg>
