<svg width="94" height="89" viewBox="0 0 94 89" fill="none" xmlns="http://www.w3.org/2000/svg">
<circle cx="25.451" cy="31.4293" r="24.951" fill="#F4475C"/>
<path d="M68.9463 58.04C70.2519 56.7417 72.0988 56.0588 74.0029 56.2188H74.002C75.9018 56.3722 77.6332 57.3563 78.7588 58.9189L78.9248 59.1621C80.5722 61.7015 80.1213 65.2078 77.876 67.4482L77.3848 67.9375L77.3662 67.9004L64.6338 79.335H64.6328C59.919 83.5629 53.8371 85.8945 47.5068 85.8945H23.1631C22.2263 85.8945 21.4658 85.1341 21.4658 84.1973C21.466 83.2606 22.2264 82.501 23.1631 82.501H47.5068C52.9992 82.501 58.2761 80.4805 62.3662 76.8096L75.5273 64.9941C76.5896 63.9268 76.8203 62.2932 76.1494 61.126L76.0039 60.8994C75.448 60.1292 74.6437 59.6717 73.7266 59.5977V59.5967C72.8225 59.5361 71.9292 59.8552 71.2881 60.4941L71.2803 60.502L71.2715 60.5098L61.2686 69.625C60.0959 70.8014 58.4718 71.5342 56.6777 71.5342H44.709C43.7723 71.5342 43.0119 70.7745 43.0117 69.8379C43.0117 68.9011 43.7722 68.1406 44.709 68.1406H56.6777C57.501 68.1406 58.2504 67.8156 58.8057 67.2871C58.8372 67.2523 58.8715 67.2148 58.9102 67.1787L58.9189 67.1709L58.9365 67.1533C59.4515 66.6014 59.7686 65.8631 59.7686 65.0498C59.7685 63.3464 58.3811 61.959 56.6777 61.959H42.5254C36.5897 61.9591 31.0095 64.2683 26.8076 68.4629L24.3965 71.001L24.3975 71.002C23.7519 71.695 22.6704 71.7122 21.9961 71.0684V71.0674C21.315 70.4236 21.2901 69.3492 21.9336 68.6719L24.3682 66.1084L24.377 66.0986C29.2411 61.2346 35.6806 58.5685 42.5254 58.5684H56.6777C59.7132 58.5684 62.2671 60.663 62.9697 63.4834L68.9463 58.04ZM37.8594 27.4521L37.8672 27.4531C41.708 27.7236 44.8199 28.5848 47.2344 30.1562C49.3163 31.5115 50.8502 33.3774 51.8877 35.7832C52.9259 33.3774 54.4599 31.5115 56.542 30.1562C58.9565 28.5846 62.0688 27.7236 65.9111 27.4531L65.9219 27.4521C67.0948 27.3957 68.2673 27.8017 69.124 28.6582C69.9718 29.5059 70.4173 30.6793 70.3301 31.875C69.9612 37.1049 68.4954 40.9829 65.6426 43.583C62.8786 46.102 58.8934 47.3432 53.585 47.5547V50.6826C53.585 51.6194 52.8245 52.3799 51.8877 52.3799C50.9509 52.3798 50.1904 51.6194 50.1904 50.6826V47.5547C44.8821 47.3432 40.8968 46.1023 38.1328 43.583C35.2799 40.9825 33.8141 37.1034 33.4453 31.8721C33.3607 30.6796 33.803 29.5093 34.6504 28.6592C35.4491 27.8579 36.515 27.439 37.6348 27.4453L37.8594 27.4521ZM37.5684 30.8379C37.3815 30.8392 37.1937 30.9177 37.0508 31.0605C36.9133 31.198 36.8368 31.3763 36.8301 31.5537L36.832 31.6289V31.6318C37.145 36.0779 38.294 39.1103 40.457 41.0791C42.5441 42.9787 45.6618 43.9644 50.1523 44.1611C49.9566 39.6711 48.9698 36.553 47.0703 34.4658C45.1015 32.3026 42.0688 31.1535 37.624 30.8418V30.8408C37.6177 30.8405 37.6117 30.8411 37.6064 30.8408C37.5933 30.84 37.5805 30.8394 37.5742 30.8389C37.5717 30.8387 37.5698 30.838 37.5684 30.8379ZM66.1777 30.8379L66.1533 30.8389C61.7075 31.1518 58.6748 32.301 56.7061 34.4639C54.8065 36.5509 53.8198 39.6689 53.623 44.1592C58.1136 43.9636 61.2319 42.9777 63.3193 41.0781C65.4826 39.1094 66.6316 36.0766 66.9434 31.6318V31.6299C66.9586 31.4255 66.8813 31.2143 66.7246 31.0576C66.5787 30.9119 66.3911 30.8359 66.2021 30.8359C66.1964 30.8359 66.1926 30.8359 66.1895 30.8359L66.1777 30.8379Z" fill="#2A2B6B" stroke="#2A2B6B"/>
</svg>
