<svg width="95" height="91" viewBox="0 0 95 91" fill="none" xmlns="http://www.w3.org/2000/svg">
<circle cx="25.45" cy="31.4293" r="24.951" fill="#F4475C"/>
<path d="M50.2383 34.4028C53.5214 34.4028 56.5788 35.5844 58.9385 37.73H58.9395L61.2227 39.811L63.2793 37.8755C67.1018 34.2785 73.0721 33.4098 77.7441 35.7515H77.7432L83.9561 38.8589L84.4092 39.0688C85.4826 39.528 86.6543 39.77 87.8203 39.77H91.9961C93.1509 39.77 94.0887 40.707 94.0889 41.8618C94.0889 43.0167 93.151 43.9536 91.9961 43.9536H87.8203C85.9654 43.9536 84.1047 43.5432 82.418 42.7612L82.083 42.6001L75.8701 39.4927L75.8691 39.4917C72.7374 37.9211 68.7057 38.5099 66.1465 40.9214L53.5342 52.7954C52.2957 54.0399 52.1155 55.9362 52.998 57.1626C53.5882 57.9804 54.4407 58.4644 55.4102 58.5444C56.3705 58.6149 57.3196 58.2748 57.9971 57.5952L58.0029 57.5894L58.0098 57.5835L69.1875 46.8833C70.0217 46.0837 71.3473 46.1149 72.1455 46.9507C72.9396 47.7825 72.9154 49.1065 72.0781 49.9067L67.0459 54.7241L86.7197 69.479C87.4262 69.3573 88.1447 69.2905 88.8672 69.2905H91.999C93.1538 69.2905 94.0907 70.2275 94.0908 71.3823C94.0908 72.5372 93.1539 73.4741 91.999 73.4741H88.8672C87.1271 73.4742 85.398 74.0134 83.9648 74.9995L83.6816 75.2026L67.333 87.4624L67.332 87.4614C65.5134 88.871 63.3289 89.5796 61.1396 89.5796C58.9507 89.5796 56.7497 88.869 54.9199 87.4458L38.5898 75.2026H38.5889C37.1036 74.0875 35.2595 73.4741 33.4033 73.4741H30.2744C29.1195 73.4741 28.1826 72.5372 28.1826 71.3823C28.1828 70.2275 29.1196 69.2906 30.2744 69.2905H33.4062C36.1659 69.2905 38.895 70.199 41.0996 71.853L57.4482 84.1128L57.4541 84.1167L57.46 84.1216C59.6308 85.8151 62.6413 85.8077 64.7969 84.1362L64.8066 84.1284L81.1738 71.853H81.1748C81.4704 71.6317 81.7746 71.4243 82.0869 71.231L63.9834 57.6567L60.9365 60.5737C59.5493 61.961 57.6572 62.7397 55.6865 62.7397C53.1349 62.7397 50.9009 61.4064 49.6055 59.6079C47.4858 56.6651 47.9569 52.4568 50.6152 49.8013L50.6309 49.7856L58.1699 42.686L56.123 40.8228C53.5009 38.4369 49.3692 38.0041 46.4014 39.4917L46.4004 39.4927L40.1885 42.6001H40.1875C38.414 43.4867 36.4315 43.9536 34.4502 43.9536H30.2744C29.1195 43.9536 28.1826 43.0167 28.1826 41.8618C28.1827 40.707 29.1196 39.77 30.2744 39.77H34.4502C35.7826 39.77 37.1222 39.4536 38.3145 38.8589L44.5273 35.7515C46.2884 34.8669 48.2632 34.4029 50.2383 34.4028Z" fill="#2A2B6B" stroke="#2A2B6B" stroke-width="1.5"/>
</svg>
