<svg width="94" height="89" viewBox="0 0 94 89" fill="none" xmlns="http://www.w3.org/2000/svg">
<circle cx="25.451" cy="31.4293" r="24.951" fill="#F4475C"/>
<path d="M74.1906 51.1582C74.1906 66.2201 61.9805 78.4302 46.9185 78.4302C31.8566 78.4302 19.6465 66.2201 19.6465 51.1582C19.6465 36.0962 31.8566 23.8861 46.9185 23.8861C61.9805 23.8861 74.1906 36.0962 74.1906 51.1582Z" stroke="#2A2B6B" stroke-width="5" stroke-linecap="round" stroke-linejoin="round"/>
<path d="M64.3276 51.1581C64.3276 60.7721 56.5339 68.5658 46.9199 68.5658C37.3059 68.5658 29.5122 60.7721 29.5122 51.1581C29.5122 41.5441 37.3059 33.7504 46.9199 33.7504C56.5339 33.7504 64.3276 41.5441 64.3276 51.1581Z" stroke="#2A2B6B" stroke-width="5" stroke-linecap="round" stroke-linejoin="round"/>
<path d="M54.4622 51.1581C54.4622 55.3241 51.0849 58.7014 46.9188 58.7014C42.7528 58.7014 39.3755 55.3241 39.3755 51.1581C39.3755 46.992 42.7528 43.6147 46.9188 43.6147C51.0849 43.6147 54.4622 46.992 54.4622 51.1581Z" stroke="#2A2B6B" stroke-width="5" stroke-linecap="round" stroke-linejoin="round"/>
</svg>
